<?xml version="1.0" encoding="UTF-8" standalone="no"?>
<!-- Created with Inkscape (http://www.inkscape.org/) -->

<svg
   xmlns:dc="http://purl.org/dc/elements/1.1/"
   xmlns:cc="http://creativecommons.org/ns#"
   xmlns:rdf="http://www.w3.org/1999/02/22-rdf-syntax-ns#"
   xmlns:svg="http://www.w3.org/2000/svg"
   xmlns="http://www.w3.org/2000/svg"
   xmlns:xlink="http://www.w3.org/1999/xlink"
   xmlns:sodipodi="http://sodipodi.sourceforge.net/DTD/sodipodi-0.dtd"
   xmlns:inkscape="http://www.inkscape.org/namespaces/inkscape"
   sodipodi:docname="zotplus.svg"
   inkscape:version="0.91 r13725"
   version="1.1"
   id="svg2"
   height="48"
   width="48"
   inkscape:export-filename="/home/emile/zotero/better-bibtex/www/zotplus.png"
   inkscape:export-xdpi="90"
   inkscape:export-ydpi="90">
  <defs
     id="defs4">
    <linearGradient
       id="linearGradient3764">
      <stop
         style="stop-color:#4d4d4d;stop-opacity:1;"
         offset="0"
         id="stop3766" />
      <stop
         style="stop-color:#4d4d4d;stop-opacity:0.45535713;"
         offset="1"
         id="stop3768" />
    </linearGradient>
    <linearGradient
       inkscape:collect="always"
       xlink:href="#linearGradient3764"
       id="linearGradient3770"
       x1="3.5"
       y1="1027.875"
       x2="44.5"
       y2="1027.875"
       gradientUnits="userSpaceOnUse" />
    <linearGradient
       inkscape:collect="always"
       id="linearGradient4314">
      <stop
         style="stop-color:#ffffff;stop-opacity:1;"
         offset="0"
         id="stop4316" />
      <stop
         style="stop-color:#ffffff;stop-opacity:0;"
         offset="1"
         id="stop4318" />
    </linearGradient>
    <linearGradient
       id="linearGradient3257">
      <stop
         style="stop-color:#ffffff;stop-opacity:0;"
         offset="0"
         id="stop3259" />
      <stop
         id="stop3269"
         offset="0.04679803"
         style="stop-color:#ffffff;stop-opacity:0.32014388;" />
      <stop
         id="stop3267"
         offset="0.5"
         style="stop-color:#ffffff;stop-opacity:0.49803922;" />
      <stop
         style="stop-color:#ffffff;stop-opacity:0.41726619;"
         offset="0.8866995"
         id="stop3271" />
      <stop
         style="stop-color:#ffffff;stop-opacity:0;"
         offset="1"
         id="stop3262" />
    </linearGradient>
    <linearGradient
       id="linearGradient3180">
      <stop
         id="stop3182"
         offset="0"
         style="stop-color:#414141;stop-opacity:1;" />
      <stop
         style="stop-color:#ababab;stop-opacity:1;"
         offset="0.5"
         id="stop3188" />
      <stop
         id="stop3184"
         offset="1"
         style="stop-color:#414141;stop-opacity:1;" />
    </linearGradient>
    <linearGradient
       inkscape:collect="always"
       xlink:href="#linearGradient3180"
       id="linearGradient3295"
       gradientUnits="userSpaceOnUse"
       x1="37.688"
       y1="63.0005"
       x2="90.312"
       y2="63.0005" />
    <linearGradient
       inkscape:collect="always"
       xlink:href="#linearGradient4314"
       id="linearGradient4338"
       gradientUnits="userSpaceOnUse"
       gradientTransform="translate(0,170.05234)"
       spreadMethod="reflect"
       x1="236.17368"
       y1="62.72517"
       x2="236.17368"
       y2="137.19238" />
    <mask
       maskUnits="userSpaceOnUse"
       id="mask4334">
      <rect
         style="opacity:1;fill:url(#linearGradient4338);fill-opacity:1;stroke:none;stroke-width:10;stroke-linecap:round;stroke-linejoin:round;stroke-miterlimit:4;stroke-dasharray:none;stroke-dashoffset:1.08779998;stroke-opacity:1"
         id="rect4336"
         width="115.81328"
         height="106.06602"
         x="184"
         y="175.01576"
         rx="8.9015923"
         ry="7.4482713" />
    </mask>
    <linearGradient
       inkscape:collect="always"
       xlink:href="#linearGradient3257"
       id="linearGradient4344"
       gradientUnits="userSpaceOnUse"
       gradientTransform="translate(177.90664,164.04877)"
       x1="17.000002"
       y1="64.000001"
       x2="111"
       y2="64.000001" />
    <mask
       maskUnits="userSpaceOnUse"
       id="mask4340">
      <path
         style="fill:url(#linearGradient4344);fill-opacity:1"
         d="M 195.90664,173.04878 C 195.35564,173.04878 194.90664,173.49763 194.90664,174.04844 L 194.90664,282.01229 C 194.90664,282.5641 195.35564,283.01195 195.90664,283.01195 L 255.07864,283.01195 C 255.34164,283.01195 257.84132,283.13008 258.02732,282.94315 L 288.61364,252.14298 C 288.80064,251.95604 288.90664,249.45819 288.90664,249.19528 L 288.90664,174.04844 C 288.90664,173.49763 288.45864,173.04878 287.90664,173.04878 L 195.90664,173.04878 z "
         id="path4342"
         sodipodi:nodetypes="ccccccccccc"
         mask="url(#mask4334)"
         transform="matrix(4.8057538,0,0,4.8057538,-518.93275,-843.26853)" />
    </mask>
    <linearGradient
       y2="102.34375"
       x2="95.460213"
       y1="93.621468"
       x1="86.73793"
       gradientTransform="matrix(1.0119858,0,0,1.0119858,-0.89554075,-0.9871566)"
       gradientUnits="userSpaceOnUse"
       id="linearGradient3893"
       xlink:href="#linearGradient6131"
       inkscape:collect="always" />
    <clipPath
       id="clipPath3889"
       clipPathUnits="userSpaceOnUse">
      <path
         style="fill:url(#linearGradient3893);fill-opacity:1;stroke:none"
         d="m 112,82.502986 c 0,4.465301 -2.79749,6.409952 -5.27972,8.093625 -5.10854,3.46508 -14.939114,3.32536 -20.720284,3.40638 -0.081,5.781159 0.16586,15.504599 -3.29922,20.613139 -1.68367,2.48224 -5.29051,5.38687 -8.20078,5.38687 2.31803,0 4.74284,-1.33476 7.58402,-4.08481 9.14197,-8.84873 17.36714,-16.13535 25.673154,-25.297529 C 109.67612,88.503916 112,86.97878 112,82.502986 z"
         id="path3891"
         inkscape:connector-curvature="0"
         sodipodi:nodetypes="cscscssc" />
    </clipPath>
    <clipPath
       id="clipPath6093"
       clipPathUnits="userSpaceOnUse">
      <path
         style="fill:#ffffff;fill-opacity:1"
         d="M 17.000001,8 17,120 l 57.5,0 c 1.675283,0 3.914297,-0.56468 7,-3.6 8.870045,-8.72523 20.24047,-19.851805 27.49904,-27.175957 C 111.4396,86.761431 112,84.752873 112,82.5 L 112,8 z"
         id="path6095"
         sodipodi:nodetypes="cccssccc"
         inkscape:connector-curvature="0" />
    </clipPath>
    <linearGradient
       id="linearGradient4518">
      <stop
         id="stop4520"
         offset="0"
         style="stop-color:#eeecec;stop-opacity:1" />
      <stop
         style="stop-color:#f4f4f4;stop-opacity:1"
         offset="0.40000001"
         id="stop5969" />
      <stop
         id="stop4522"
         offset="1"
         style="stop-color:#f6f5f5;stop-opacity:1" />
    </linearGradient>
    <linearGradient
       id="linearGradient6131">
      <stop
         style="stop-color:#fcfcfc;stop-opacity:1"
         offset="0"
         id="stop6133" />
      <stop
         id="stop6135"
         offset="0.52275378"
         style="stop-color:#f8f8f8;stop-opacity:1" />
      <stop
         style="stop-color:#f0efef;stop-opacity:1;"
         offset="0.77457333"
         id="stop6141" />
      <stop
         style="stop-color:#e3e1e1;stop-opacity:1;"
         offset="0.90122044"
         id="stop6139" />
      <stop
         style="stop-color:#cecbcb;stop-opacity:1"
         offset="1"
         id="stop6137" />
    </linearGradient>
    <linearGradient
       id="linearGradient3897">
      <stop
         id="stop3899"
         offset="0"
         style="stop-color:#fcfcfc;stop-opacity:1" />
      <stop
         style="stop-color:#f8f8f8;stop-opacity:1"
         offset="0.52275378"
         id="stop3901" />
      <stop
         id="stop3903"
         offset="0.72337759"
         style="stop-color:#f0efef;stop-opacity:1;" />
      <stop
         id="stop3905"
         offset="0.89024991"
         style="stop-color:#e3e1e1;stop-opacity:1;" />
      <stop
         id="stop3907"
         offset="1"
         style="stop-color:#cecbcb;stop-opacity:1" />
    </linearGradient>
  </defs>
  <sodipodi:namedview
     inkscape:window-maximized="1"
     inkscape:window-y="0"
     inkscape:window-x="-4"
     inkscape:window-height="991"
     inkscape:window-width="1680"
     showgrid="false"
     inkscape:current-layer="layer1"
     inkscape:document-units="px"
     inkscape:cy="42.616245"
     inkscape:cx="-29.030727"
     inkscape:zoom="4.8422311"
     inkscape:pageshadow="2"
     inkscape:pageopacity="0.0"
     borderopacity="1.0"
     bordercolor="#666666"
     pagecolor="#ffffff"
     id="base">
    <inkscape:grid
       type="xygrid"
       id="grid2985"
       empspacing="5"
       visible="true"
       enabled="true"
       snapvisiblegridlinesonly="true" />
  </sodipodi:namedview>
  <metadata
     id="metadata7">
    <rdf:RDF>
      <cc:Work
         rdf:about="">
        <dc:format>image/svg+xml</dc:format>
        <dc:type
           rdf:resource="http://purl.org/dc/dcmitype/StillImage" />
        <dc:title />
      </cc:Work>
    </rdf:RDF>
  </metadata>
  <g
     inkscape:label="Layer 1"
     inkscape:groupmode="layer"
     id="layer1"
     transform="translate(0,-1004.3622)">
    <path
       style="fill:#f9f9f9;stroke:none"
       d="m 24,1050.3878 20,-10 -20,-10 -20,10 z"
       id="path2987"
       inkscape:connector-curvature="0"
       sodipodi:nodetypes="ccccc" />
    <path
       sodipodi:nodetypes="ccccc"
       inkscape:connector-curvature="0"
       id="path2989"
       d="m 24,1030.3878 0,-25 -20,10 0,25 z"
       style="fill:#ececec;stroke:none" />
    <path
       style="fill:#cccccc;stroke:none"
       d="m 24,1030.3878 0,-25 20,10 0,25 z"
       id="path2991"
       inkscape:connector-curvature="0"
       sodipodi:nodetypes="ccccc" />
    <path
       style="fill:none;stroke:url(#linearGradient3770);stroke-width:1px;stroke-linecap:butt;stroke-linejoin:miter;stroke-opacity:0.52910053999999995"
       d="m 24,1050.375 20,-10 0,-25 -20,-10 -20,10 0,25 20,10 z"
       id="path2993"
       inkscape:connector-curvature="0" />
    <g
       style="font-style:italic;font-variant:normal;font-weight:500;font-stretch:normal;font-size:40px;line-height:125%;font-family:'CMU Classical Serif';-inkscape-font-specification:'CMU Classical Serif, Medium Italic';text-align:start;letter-spacing:0px;word-spacing:0px;writing-mode:lr-tb;text-anchor:start;fill:#000000;fill-opacity:1;stroke:none;stroke-width:1px;stroke-linecap:butt;stroke-linejoin:miter;stroke-opacity:1"
       id="text4196" />
    <path
       id="rect4203"
       style="opacity:0.798;fill:#ff1300;fill-opacity:1;stroke:none;stroke-width:0.1;stroke-miterlimit:4;stroke-dasharray:none;stroke-opacity:1"
       d="m 20.361217,1022.548 9.253804,7.3466 c 0.448911,0.3564 0.558911,1.0303 0.246634,1.5109 l -0.125292,0.1929 c -0.312282,0.4806 -0.925086,0.5806 -1.373997,0.2243 l -9.253804,-7.3466 c -0.448911,-0.3564 -0.558916,-1.0303 -0.246634,-1.5109 l 0.125291,-0.1929 c 0.312277,-0.4806 0.925087,-0.5807 1.373998,-0.2243 z m -9.027006,18.2854 q 2e-6,-0.24 0.680005,-1.24 l 20.439994,-24.36 -5.719994,0 q -2.360003,0 -4.080002,0.72 -1.720004,0.68 -2.599999,1.76 -0.839999,1.04 -1.3598,2.0801 -0.480002,1.04 -0.760002,1.96 -0.279995,0.92 -0.479997,1.08 -0.239996,0.16 -0.439999,0.16 -0.559994,0 -0.560004,-0.56 6e-6,-0.2 2.240005,-7.64 0.279999,-0.8 0.999994,-0.8 l 15.599999,0 q 0.960006,0 0.96,0.44 3e-6,0.36 -0.840012,1.4 l -20.199997,24.16 5.239998,0 q 3.320003,0 5.240001,-0.84 1.920001,-0.84 2.999996,-2.52 1.119914,-1.72 2.2,-5.04 0.280008,-0.92 0.840003,-0.92 0.520005,0 0.520008,0.52 l -2.879998,9.44 q -0.240005,0.68 -1.000003,0.68 l -16.239997,0 q -0.799999,0 -0.800005,-0.48 z"
       inkscape:connector-curvature="0" />
  </g>
</svg>
